<?xml version="1.0" encoding="utf-8"?>
<!-- Generator: Adobe Illustrator 28.0.0, SVG Export Plug-In . SVG Version: 6.00 Build 0)  -->
<svg version="1.1" xmlns="http://www.w3.org/2000/svg" xmlns:xlink="http://www.w3.org/1999/xlink" x="0px" y="0px"
	 viewBox="0 0 750 500" style="enable-background:new 0 0 750 500;" xml:space="preserve">
<style type="text/css">
	.st0{opacity:0.5;}
	.st1{opacity:0.5;clip-path:url(#SVGID_00000025410758113120430280000009281102517286388882_);}
	.st2{clip-path:url(#SVGID_00000155148435225756346230000004710193773429973131_);}
	.st3{fill:none;stroke:#B3B3B3;stroke-width:0.3;stroke-miterlimit:10;}
	
		.st4{clip-path:url(#SVGID_00000155148435225756346230000004710193773429973131_);fill:none;stroke:#B3B3B3;stroke-width:0.3;stroke-miterlimit:10;}
	.st5{clip-path:url(#SVGID_00000182524566922840265730000001253676484458407340_);}
	
		.st6{clip-path:url(#SVGID_00000182524566922840265730000001253676484458407340_);fill:none;stroke:#B3B3B3;stroke-width:0.3;stroke-miterlimit:10;}
</style>
<g id="BACKGROUND">
	<g class="st0">
		<defs>
			<rect id="SVGID_1_" class="st0" width="750" height="500"/>
		</defs>
		<clipPath id="SVGID_00000005250231299498318560000011644673267287699102_">
			<use xlink:href="#SVGID_1_"  style="overflow:visible;"/>
		</clipPath>
		<g style="opacity:0.5;clip-path:url(#SVGID_00000005250231299498318560000011644673267287699102_);">
			<g>
				<g>
					<defs>
						<path id="SVGID_00000139990484447829797780000001407993227318513053_" d="M130.3,631c7.3,29.1,44,40.3,73.7,36.1
							s57.8-18.4,87.8-19.1c26.7-0.6,52.4,9.6,78.9,13.6c58.2,9,116.6-11.8,171.1-34.1c54.5-22.3,110.4-47,169.3-46.2
							c36.2,0.5,71.8,10.7,108,11.4c42.1,0.9,85-11.6,118.1-37.7c33.1-26.1,55.8-66,58.1-108.1L948.9,245
							c-54.7-14.5-115.7-3.4-161.7,29.5c-21.8,15.5-41.9,36.3-68.3,40.4c-42.1,6.5-77.1-31.4-117.9-43.4
							c-51.2-15.1-107.5,13.9-139.2,56.9c-23.1,31.3-38.6,71.8-73.8,88.6c-46.8,22.4-101.5-9.1-153.3-6.4
							c-29.6,1.5-58.4,14.8-78.6,36.4c-16.9,17.9-27.5,40.5-40.5,61.5L130.3,631z"/>
					</defs>
					<clipPath id="SVGID_00000066505050751181229400000014156874303292027555_">
						<use xlink:href="#SVGID_00000139990484447829797780000001407993227318513053_"  style="overflow:visible;"/>
					</clipPath>
				</g>
				<g>
					<defs>
						<path id="SVGID_00000087395512587005338060000007220386076217998741_" d="M130.3,631c7.3,29.1,44,40.3,73.7,36.1
							s57.8-18.4,87.8-19.1c26.7-0.6,52.4,9.6,78.9,13.6c58.2,9,116.6-11.8,171.1-34.1c54.5-22.3,110.4-47,169.3-46.2
							c36.2,0.5,71.8,10.7,108,11.4c42.1,0.9,85-11.6,118.1-37.7c33.1-26.1,55.8-66,58.1-108.1L948.9,245
							c-54.7-14.5-115.7-3.4-161.7,29.5c-21.8,15.5-41.9,36.3-68.3,40.4c-42.1,6.5-77.1-31.4-117.9-43.4
							c-51.2-15.1-107.5,13.9-139.2,56.9c-23.1,31.3-38.6,71.8-73.8,88.6c-46.8,22.4-101.5-9.1-153.3-6.4
							c-29.6,1.5-58.4,14.8-78.6,36.4c-16.9,17.9-27.5,40.5-40.5,61.5L130.3,631z"/>
					</defs>
					<clipPath id="SVGID_00000043417869233110518400000018136126861089217973_">
						<use xlink:href="#SVGID_00000087395512587005338060000007220386076217998741_"  style="overflow:visible;"/>
					</clipPath>
					<g style="clip-path:url(#SVGID_00000043417869233110518400000018136126861089217973_);">
						<g>
							<path class="st3" d="M115.5,508.3c13-21,23.6-43.6,40.5-61.5c20.3-21.5,49.1-34.9,78.6-36.4c51.8-2.6,106.5,28.8,153.3,6.4
								c35.1-16.8,50.7-57.3,73.8-88.6c31.7-43,87.9-71.9,139.2-56.9c40.8,12,75.9,49.9,117.9,43.4c26.4-4.1,46.5-24.8,68.3-40.4
								c46.1-32.9,107-44,161.7-29.5"/>
							<path class="st3" d="M952.2,259.4c-51-10.5-109.2,2.7-154.3,35.1c-22.6,16.3-44.3,36.3-71.9,40.2
								c-41.7,5.8-76.7-30-117.2-41.1c-51.7-14.2-107.7,14.9-141.3,56.1c-25.2,30.9-44.2,69.1-80.7,84.7
								c-45.8,19.6-97.9-9.4-148-6.9c-29.6,1.4-58.2,14.9-79.3,35.1c-17.7,17-30.3,37.1-42.8,54.5"/>
							<path class="st3" d="M955.5,273.9c-47.2-6.4-102.8,8.7-146.9,40.7c-23.4,17-46.8,36.4-75.4,40
								c-41.3,5.1-76.3-28.6-116.5-38.8c-52.3-13.2-108,15.8-143.5,55.4c-27.2,30.4-49.8,66.3-87.7,80.8
								c-44.6,17-94.4-9.8-142.7-7.5c-29.6,1.4-58.2,15-80,33.9c-18.6,16.1-33.1,33.7-45.2,47.5"/>
							<path class="st3" d="M958.8,288.3c-43.5-2.4-96.3,14.8-139.5,46.3c-24.3,17.7-49.2,36.5-79,39.8
								c-40.9,4.5-75.9-27.2-115.8-36.5c-52.8-12.3-108.4,16.7-145.6,54.6c-29.4,29.9-55.2,63.6-94.7,76.9
								c-43.3,14.6-90.9-10.2-137.3-8c-29.7,1.3-58.1,15.1-80.6,32.6c-19.4,15.2-35.9,30.3-47.6,40.6"/>
							<path class="st3" d="M962.1,302.8c-39.7,1.7-89.8,20.8-132.1,51.9c-25.1,18.4-51.6,36.6-82.5,39.6
								C707,398.2,672,368.4,632.4,360c-53.3-11.4-108.8,17.5-147.8,53.8c-31.5,29.4-60.5,61-101.6,73c-41.8,12.2-87.4-10.5-132-8.5
								c-29.7,1.3-58.1,15.1-81.3,31.4c-20.3,14.3-38.6,26.9-50,33.6"/>
							<path class="st3" d="M965.4,317.2c-36,5.7-83.4,26.9-124.7,57.5c-25.9,19.2-54.1,36.7-86.1,39.4c-40,3.4-75.1-24.4-114.4-32
								c-53.9-10.4-109.3,18.3-149.9,53.1c-33.7,28.9-65.8,58.5-108.6,69.1c-40.4,10.1-83.8-10.9-126.7-9
								c-29.7,1.2-58,15.2-81.9,30.2c-21.3,13.3-41.4,23.5-52.3,26.6"/>
							<path class="st3" d="M968.8,331.6c-32.2,9.7-76.9,33-117.3,63.1c-26.7,19.9-56.5,36.8-89.6,39.2
								c-39.6,2.8-74.7-23-113.7-29.7c-54.4-9.4-109.8,19.1-152.1,52.3c-36,28.3-71.1,56-115.5,65.2c-38.8,8.1-80.3-11.2-121.4-9.5
								c-29.8,1.2-58,15.2-82.6,28.9c-22.2,12.4-44.2,20.1-54.7,19.6"/>
							<path class="st3" d="M972.1,346.1c-28.5,13.8-70.4,39.1-109.9,68.8c-27.5,20.7-58.9,37-93.2,39
								c-39.2,2.3-74.4-21.5-112.9-27.4c-55-8.4-110.4,19.8-154.2,51.5c-38.2,27.7-76.2,53.7-122.5,61.4
								c-37.2,6.2-76.8-11.6-116.1-10c-29.8,1.2-58,15.2-83.2,27.7c-23.1,11.4-47,16.8-57.1,12.7"/>
							<path class="st3" d="M975.4,360.5c-24.8,17.8-63.9,45.2-102.5,74.4c-28.4,21.4-61.4,37.2-96.8,38.8
								c-38.7,1.8-74-20-112.2-25.1c-55.6-7.4-111,20.5-156.4,50.8c-40.5,27-81.4,51.5-129.4,57.5c-35.6,4.4-73.3-11.9-110.8-10.5
								c-29.8,1.1-58,15.2-83.9,26.5c-24.1,10.4-49.8,13.4-59.5,5.7"/>
							<path class="st3" d="M978.7,375c-21,21.9-57.4,51.4-95.1,80c-29.2,22.2-63.8,37.3-100.3,38.6C745,495,709.7,475,671.8,470.7
								c-56.1-6.4-111.6,21.2-158.5,50c-42.8,26.3-86.5,49.5-136.4,53.6c-34,2.8-69.7-12.3-105.4-11.1c-29.9,1-58.1,15.2-84.6,25.2
								c-25,9.5-52.5,10-61.8-1.3"/>
							<path class="st3" d="M982,389.4c-17.3,25.9-50.9,57.5-87.7,85.6c-30,22.9-66.2,37.5-103.9,38.4
								c-37.9,0.9-73.3-17.1-110.8-20.6c-56.7-5.3-112.2,21.8-160.7,49.2c-45.2,25.6-91.7,47.7-143.3,49.7
								c-32.4,1.2-66.2-12.7-100.1-11.6c-29.9,1-58.1,15.2-85.2,24c-26,8.4-55.3,6.6-64.2-8.3"/>
							<path class="st3" d="M985.3,403.8c-13.5,30-44.4,63.6-80.3,91.2c-30.8,23.7-68.7,37.8-107.4,38.3
								c-37.5,0.5-72.9-15.6-110.1-18.3c-57.2-4.2-112.9,22.3-162.8,48.5c-47.5,24.8-96.9,46.1-150.3,45.8
								c-30.8-0.2-62.7-13.1-94.8-12.1c-29.9,0.9-58.1,15.1-85.9,22.8c-26.9,7.4-58.1,3.2-66.6-15.2"/>
							<path class="st3" d="M988.6,418.3c-9.8,34-37.9,69.7-72.9,96.8c-31.6,24.5-71.1,38-111,38.1c-37,0-72.5-14-109.4-16
								c-57.8-3.1-113.5,22.9-165,47.7c-49.8,24-102.1,44.8-157.2,41.9c-29.3-1.6-59.2-13.5-89.5-12.6c-30,0.8-58.1,15-86.5,21.5
								c-27.9,6.4-60.9-0.2-69-22.2"/>
							<path class="st3" d="M991.9,432.7c-6,38-31.4,75.9-65.5,102.4c-32.3,25.3-73.5,38.3-114.5,37.9
								c-36.6-0.4-72.1-12.5-108.7-13.7c-58.4-2-114.1,23.4-167.1,46.9c-52.2,23.2-107.4,43.8-164.2,38
								c-27.8-2.8-55.6-13.9-84.2-13.1c-30,0.7-58.1,15-87.2,20.3c-28.8,5.3-63.7-3.6-71.3-29.2"/>
							<path class="st3" d="M995.2,447.2c-2.3,42.1-24.9,82-58.1,108.1c-33.1,26.1-76,38.6-118.1,37.7c-36.2-0.8-71.8-11-108-11.4
								c-58.9-0.8-114.7,23.9-169.3,46.2c-54.5,22.3-112.9,43.1-171.1,34.1c-26.4-4.1-52.1-14.2-78.9-13.6
								c-30,0.7-58.1,14.9-87.8,19.1s-66.4-7-73.7-36.1"/>
						</g>
						<g>
							<path class="st3" d="M358.9,344.7c-9,24,19.2,43,23.9,65.6c8.9,42.7-21.6,50.3-19.6,83.1c2.5,41.9,35.4,47.1,50,79.7
								c18,37.7,1.5,95.6,43,118.3"/>
							<path class="st3" d="M335,349.3c-6.2,23.3,19.5,42.3,24.8,64.4c3.8,16.2,2.2,27.6-1.2,37.5c-4.8,14.4-13.3,25.4-11.7,44.2
								c1.6,20,9.7,32.1,19.1,43.3c9.3,11.1,19.8,21.2,26.6,37c16.3,37.9,3.3,92.8,39.9,117.8"/>
							<path class="st3" d="M311.1,353.9c-3.5,22.6,19.7,41.5,25.6,63.3c4.1,15.2,3.5,26.6,1.3,36.6c-3.1,14.2-9.5,25.7-7.5,43.6
								c2,19,9.3,31.5,17.7,43.2c8.3,11.5,17.6,22.2,23.7,37.7c14.9,37.9,5.2,90.1,36.8,117.3"/>
							<path class="st3" d="M287.2,358.5c-0.7,21.9,20,40.8,26.4,62.1c4.3,14.3,4.8,25.5,3.9,35.8c-1.3,14.1-5.7,26-3.3,43.1
								c2.4,18,9,30.9,16.4,43.1c7.2,12,15.3,23.2,20.7,38.4c13.6,37.9,7.1,87.4,33.7,116.8"/>
							<path class="st3" d="M263.3,363.1c2,21.1,20.1,40,27.2,60.9c4.5,13.4,6.1,24.5,6.4,34.9c0.4,13.9-1.8,26.3,0.9,42.6
								c2.8,17.1,8.6,30.3,15,43c6.2,12.4,13,24.3,17.8,39.1c12.2,37.9,8.9,84.6,30.6,116.3"/>
							<path class="st3" d="M239.5,367.6c4.7,20.4,20.3,39.3,28,59.7c4.7,12.4,7.3,23.4,8.9,34c2,13.7,2,26.5,5.1,42
								c3.2,16.1,8.3,29.6,13.6,42.9c5.2,12.8,10.8,25.4,14.9,39.8c10.7,38,10.8,81.9,27.5,115.8"/>
							<path class="st3" d="M215.6,372.2c7.5,19.7,20.4,38.6,28.8,58.6c4.9,11.5,8.5,22.3,11.4,33.1c3.6,13.6,5.8,26.8,9.4,41.5
								c3.6,15.1,7.9,29,12.3,42.8c4.2,13.3,8.5,26.4,11.9,40.6c9.3,38.1,12.7,79.2,24.4,115.3"/>
							<path class="st3" d="M84.9,450.4c-7.6,20.5,16.4,36.6,20.4,55.9c7.6,36.3-18.4,42.8-16.7,70.7c2.1,35.7,30.1,40.1,42.6,67.9
								c15.4,32.1,1.2,81.4,36.6,100.7"/>
							<path class="st3" d="M100.1,439.9c-5.1,20.3,17,36.8,21.7,56.1c3.4,14,2.1,24-0.7,32.6c-4,12.5-11.1,22.2-9.7,38.5
								c1.5,17.3,8.4,28,16.5,37.8c8,9.7,17,18.6,22.9,32.4c14,33,3.1,80.7,34.4,102.7"/>
							<path class="st3" d="M115.4,429.4c-2.5,20,17.7,37,23,56.3c3.7,13.4,3.4,23.5,1.7,32.6c-2.4,12.7-7.7,23-5.8,38.9
								c1.9,16.8,8.3,28.1,15.6,38.6c7.2,10.4,15.2,20.1,20.5,33.9c13.1,33.9,5,80,32.2,104.7"/>
							<path class="st3" d="M130.6,418.9c0,19.8,18.3,37.1,24.3,56.5c4,12.8,4.7,23.1,4.2,32.5c-0.8,12.8-4.2,23.8-1.9,39.3
								c2.3,16.3,8.1,28.1,14.6,39.4c6.4,11.1,13.4,21.5,18.2,35.4c12.1,34.7,6.9,79.3,30,106.8"/>
							<path class="st3" d="M145.9,408.4c2.6,19.6,18.9,37.3,25.7,56.7c4.3,12.3,6,22.6,6.6,32.4c0.8,13-0.7,24.7,1.9,39.7
								c2.8,15.7,8,28.2,13.7,40.2c5.6,11.7,11.6,23,15.9,36.8c11.1,35.5,8.8,78.6,27.8,108.8"/>
							<path class="st3" d="M161.2,397.9c5.1,19.4,19.4,37.5,27,57c4.5,11.7,7.3,22.2,9,32.4c2.3,13.1,2.7,25.5,5.8,40.1
								c3.2,15.2,7.8,28.3,12.8,41c4.8,12.4,9.8,24.5,13.6,38.3c10,36.4,10.7,77.9,25.6,110.8"/>
							<path class="st3" d="M176.4,387.3c7.7,19.2,20,37.7,28.3,57.2c4.8,11.1,8.5,21.7,11.5,32.3c3.7,13.2,6.2,26.3,9.7,40.6
								c3.6,14.6,7.7,28.3,11.8,41.9c4,13,8,26,11.3,39.8c8.9,37.3,12.6,77.2,23.4,112.8"/>
							<path class="st3" d="M191.7,376.8c15.8,29.3,31.6,58.6,43.6,89.7c10.5,27.1,17.9,55.3,24.5,83.6
								c12,51.6,21.1,103.9,30.2,156.1"/>
							<path class="st3" d="M537.3,244.5c19.8,36.7,39.6,73.5,54.6,112.4c13.1,34,22.4,69.3,30.7,104.8
								c15,64.7,26.5,130.2,37.9,195.6"/>
							<path class="st3" d="M517.5,255.6c10.4,23.8,25,47,35.7,71.2c6,13.7,11,26.9,15.1,40.2c5.1,16.5,8.8,33,13.4,50.6
								c4.6,18.1,9.6,35.3,14.4,52.4c4.7,16.5,9.3,32.8,13.3,50c10.7,46.7,16.4,95.8,28.5,141.1"/>
							<path class="st3" d="M497.7,266.8c8,23.8,24.4,46.5,34.2,70.5c5.8,14.1,9.8,27.1,12.8,40c3.8,16.3,5.6,32,9.7,49.9
								c4.2,18.4,9.6,34.9,15.2,51.2c5.4,15.7,10.9,31.2,15.3,48.3c11.6,45.5,14.5,95.8,30.3,138.2"/>
							<path class="st3" d="M477.8,277.9c5.5,23.8,23.7,46,32.7,69.8c5.5,14.5,8.6,27.3,10.4,39.8c2.4,16,2.3,31,6,49.1
								c3.8,18.8,9.7,34.7,15.9,50.1c6.1,15,12.6,29.6,17.4,46.6c12.6,44.4,12.6,95.8,32.1,135.4"/>
							<path class="st3" d="M458,289c3.1,23.9,23,45.4,31.3,69.1c5.2,14.9,7.3,27.6,8.1,39.5c0.9,15.8-0.9,30,2.4,48.4
								c3.4,19.1,9.7,34.3,16.7,49c6.8,14.3,14.2,28,19.4,44.9c13.5,43.3,10.8,95.7,33.9,132.5"/>
							<path class="st3" d="M438.2,300.2c0.7,23.9,22.3,45,29.8,68.4c4.9,15.4,6.1,27.8,5.7,39.3c-0.5,15.6-4.1,29.1-1.3,47.6
								c2.9,19.5,9.8,34,17.4,47.9c7.5,13.6,15.8,26.4,21.4,43.2c14.4,42.2,8.9,95.7,35.7,129.7"/>
							<path class="st3" d="M418.4,311.3c-1.7,23.9,21.6,44.5,28.3,67.7c4.6,15.8,4.8,28,3.4,39.1c-2,15.3-7.4,28.1-5,46.9
								c2.5,19.9,9.9,33.7,18.2,46.8c8.2,12.8,17.3,24.9,23.5,41.5c15.2,41.1,7,95.7,37.6,126.8"/>
							<path class="st3" d="M398.5,322.4c-4.1,24,20.8,44,26.9,67c4.3,16.3,3.5,28.3,1,38.8c-3.5,15.1-10.6,27.1-8.6,46.2
								c2.1,20.2,9.9,33.4,18.9,45.6c8.9,12.1,18.9,23.3,25.5,39.7c16,40,5.2,95.6,39.4,124"/>
							<path class="st3" d="M378.7,333.6c-6.5,24,20,43.5,25.4,66.3c3.9,16.7,2.1,28.5-1.3,38.6c-5.1,14.8-13.9,26.1-12.3,45.4
								c1.7,20.6,10,33.1,19.7,44.5c9.6,11.3,20.5,21.7,27.5,38c16.8,38.9,3.3,95.6,41.2,121.1"/>
							<path class="st3" d="M745.4,242.1c-12.2,197.5,128.5,78.2,106,290.6c3.5,29.4,15.9,55.8,35.6,77.8"/>
							<path class="st3" d="M715.7,242.4c-0.6,60.1,12.4,91.9,29.7,114c21.8,27.9,52.4,37.6,67.3,77.5c8.8,23.6,8,55.7,9.3,103.8
								c0.8,29.6,15.2,56.3,32.8,79.4"/>
							<path class="st3" d="M686,242.8c2.8,56.2,16.7,89,33.8,113.7c20.1,29.1,47.6,42.8,61.2,82.1c8.8,25.5,9.2,58.4,11.4,104.3
								c1.4,29.7,14.4,56.8,30,81"/>
							<path class="st3" d="M656.2,243.1c6.2,52.3,21.1,86,38,113.5c18.5,30.1,42.7,48.1,55.1,86.6c8.8,27.4,10.4,61,13.5,104.7
								c2.1,29.7,13.7,57.3,27.2,82.6"/>
							<path class="st3" d="M626.5,243.4c9.6,48.4,25.5,82.9,42.1,113.2c17.1,31.1,37.7,53.4,49,91.2c8.7,29.4,11.6,63.5,15.6,105.2
								c2.9,29.7,12.9,57.8,24.4,84.2"/>
							<path class="st3" d="M596.8,243.8c13,44.5,30.1,79.8,46.3,112.9c15.7,32.1,32.7,58.7,42.9,95.7c8.6,31.4,12.8,66,17.7,105.6
								c3.7,29.7,12.2,58.3,21.6,85.8"/>
							<path class="st3" d="M567,244.1c16.4,40.6,34.8,76.7,50.4,112.6c14.4,33.1,27.6,64,36.8,100.3c8.4,33.3,14.1,68.5,19.9,106.1
								c4.6,29.7,11.5,58.8,18.7,87.4"/>
							<path class="st3" d="M918,201.3c53,98.1,79.2,210.6,74.9,322"/>
							<path class="st3" d="M893.3,207.1c34.2,94.8,72.7,152.1,78.3,257.8c1.3,24.1,4.1,47.8,6.2,70.9"/>
							<path class="st3" d="M868.7,213c26.5,111.9,78.3,139.8,82.9,263.2c0.9,25,6.1,49.2,11.1,72"/>
							<path class="st3" d="M844,218.8c18.7,129,83.7,127.3,87.5,268.7c0.7,25.9,8,50.5,16,73.2"/>
							<path class="st3" d="M819.4,224.6c11,146.2,89,114.8,92.1,274.2c0.5,26.9,10,51.8,20.9,74.3"/>
							<path class="st3" d="M794.7,230.4c3.3,163.3,94.3,102.3,96.8,279.7c0.4,27.8,12,53.1,25.8,75.5"/>
							<path class="st3" d="M770.1,236.2c-4.5,180.4,99.5,89.7,101.4,285.1c0.3,28.7,13.9,54.5,30.7,76.6"/>
						</g>
					</g>
					
						<path style="clip-path:url(#SVGID_00000043417869233110518400000018136126861089217973_);fill:none;stroke:#B3B3B3;stroke-width:0.3;stroke-miterlimit:10;" d="
						M115.5,508.3c13-21,23.6-43.6,40.5-61.5c20.3-21.5,49.1-34.9,78.6-36.4c51.8-2.6,106.5,28.8,153.3,6.4
						c35.1-16.8,50.7-57.3,73.8-88.6c31.7-43,87.9-71.9,139.2-56.9c40.8,12,75.9,49.9,117.9,43.4c26.4-4.1,46.5-24.8,68.3-40.4
						c46.1-32.9,107-44,161.7-29.5"/>
					
						<path style="clip-path:url(#SVGID_00000043417869233110518400000018136126861089217973_);fill:none;stroke:#B3B3B3;stroke-width:0.3;stroke-miterlimit:10;" d="
						M995.2,447.2c-2.3,42.1-24.9,82-58.1,108.1c-33.1,26.1-76,38.6-118.1,37.7c-36.2-0.8-71.8-11-108-11.4
						c-58.9-0.8-114.7,23.9-169.3,46.2c-54.5,22.3-112.9,43.1-171.1,34.1c-26.4-4.1-52.1-14.2-78.9-13.6
						c-30,0.7-58.1,14.9-87.8,19.1s-66.4-7-73.7-36.1"/>
				</g>
				<g>
					<defs>
						<path id="SVGID_00000065039525189879295050000008691147455825297537_" d="M130.3,631c7.3,29.1,44,40.3,73.7,36.1
							s57.8-18.4,87.8-19.1c26.7-0.6,52.4,9.6,78.9,13.6c58.2,9,116.6-11.8,171.1-34.1c54.5-22.3,110.4-47,169.3-46.2
							c36.2,0.5,71.8,10.7,108,11.4c42.1,0.9,85-11.6,118.1-37.7c33.1-26.1,55.8-66,58.1-108.1L948.9,245
							c-54.7-14.5-115.7-3.4-161.7,29.5c-21.8,15.5-41.9,36.3-68.3,40.4c-42.1,6.5-77.1-31.4-117.9-43.4
							c-51.2-15.1-107.5,13.9-139.2,56.9c-23.1,31.3-38.6,71.8-73.8,88.6c-46.8,22.4-101.5-9.1-153.3-6.4
							c-29.6,1.5-58.4,14.8-78.6,36.4c-16.9,17.9-27.5,40.5-40.5,61.5L130.3,631z"/>
					</defs>
					<clipPath id="SVGID_00000036963909355683567980000004397238893581725851_">
						<use xlink:href="#SVGID_00000065039525189879295050000008691147455825297537_"  style="overflow:visible;"/>
					</clipPath>
				</g>
			</g>
			<g>
				
					<image style="overflow:visible;opacity:0.75;" width="895" height="403" xlink:href="265EBA2F.png"  transform="matrix(1 0 0 1 -103 -157)">
				</image>
				<g>
					<g>
						<defs>
							<path id="SVGID_00000076567812761136850570000003027495724856565147_" d="M773.2-85.3c-4.4-29.1-39.1-43.5-68.5-42.1
								c-29.4,1.3-58.1,12.5-87.4,10.3c-26.1-1.9-50.2-14.2-75.6-20.7c-55.9-14.2-114.8,0.6-170,17.2
								c-55.2,16.6-112,35.4-169.3,29.1c-35.3-3.9-68.9-17.1-104.2-21.3c-41-4.8-83.9,3.4-118.6,25.7C-55.2-64.7-81-27.9-87.2,12.9
								L-61,214.3c52,19.3,112.4,14.1,160.4-13.6c22.7-13.1,44.2-31.5,70.4-32.9c41.6-2.4,72.2,37.8,110.9,53.3
								c48.5,19.5,106.1-3.5,141-42.4c25.5-28.4,44.4-66.4,80.2-79.5c47.8-17.4,98.1,18.3,148.8,20.6c29,1.3,58.3-9,80.1-28.1
								C749,76,761.5,54.9,776.1,35.7L773.2-85.3z"/>
						</defs>
						<clipPath id="SVGID_00000145042351519541350070000003158721949133000333_">
							<use xlink:href="#SVGID_00000076567812761136850570000003027495724856565147_"  style="overflow:visible;"/>
						</clipPath>
					</g>
					<g>
						<defs>
							<path id="SVGID_00000130631516302756983700000018264158272963201185_" d="M773.2-85.3c-4.4-29.1-39.1-43.5-68.5-42.1
								c-29.4,1.3-58.1,12.5-87.4,10.3c-26.1-1.9-50.2-14.2-75.6-20.7c-55.9-14.2-114.8,0.6-170,17.2
								c-55.2,16.6-112,35.4-169.3,29.1c-35.3-3.9-68.9-17.1-104.2-21.3c-41-4.8-83.9,3.4-118.6,25.7C-55.2-64.7-81-27.9-87.2,12.9
								L-61,214.3c52,19.3,112.4,14.1,160.4-13.6c22.7-13.1,44.2-31.5,70.4-32.9c41.6-2.4,72.2,37.8,110.9,53.3
								c48.5,19.5,106.1-3.5,141-42.4c25.5-28.4,44.4-66.4,80.2-79.5c47.8-17.4,98.1,18.3,148.8,20.6c29,1.3,58.3-9,80.1-28.1
								C749,76,761.5,54.9,776.1,35.7L773.2-85.3z"/>
						</defs>
						<clipPath id="SVGID_00000108292703559200545380000004068948482176763305_">
							<use xlink:href="#SVGID_00000130631516302756983700000018264158272963201185_"  style="overflow:visible;"/>
						</clipPath>
						<g style="clip-path:url(#SVGID_00000108292703559200545380000004068948482176763305_);">
							<g>
								<path class="st3" d="M776.1,35.7C761.5,54.9,749,76,730.9,91.8c-21.8,19.1-51.1,29.4-80.1,28.1
									c-50.8-2.3-101.1-38.1-148.8-20.6c-35.8,13.1-54.8,51.1-80.2,79.5c-34.9,38.9-92.5,61.9-141,42.4
									c-38.7-15.5-69.3-55.7-110.9-53.3c-26.1,1.5-47.7,19.8-70.4,32.9C51.5,228.5-9,233.6-61,214.3"/>
								<path class="st3" d="M-62.8,199.9c48.7,15,106.7,7.6,153.7-19.7c23.5-13.8,46.6-31.3,73.8-32.4
									c41.2-1.7,71.9,36.4,110.4,51.1c49.1,18.7,106.4-4.4,143-41.5c27.4-27.7,49.6-63.2,86.6-75c46.4-14.8,94.6,18.4,143.6,20.6
									c29,1.4,58.2-9.1,80.6-26.8c18.9-14.9,33-33.3,46.9-49.1"/>
								<path class="st3" d="M-64.7,185.6c45.4,10.7,101,1.1,147-25.9c24.4-14.4,49-31.1,77.3-31.9c40.7-1.1,71.7,35.1,109.9,48.8
									c49.7,17.8,106.8-5.3,145-40.5c29.4-27.1,54.7-60,93.1-70.6c45-12.4,91.1,18.4,138.4,20.6c29,1.4,58.1-9.2,81.1-25.5
									c19.6-13.9,35.4-29.8,48.5-42.1"/>
								<path class="st3" d="M-66.6,171.2c42.2,6.4,95.3-5.4,140.3-32.1c25.3-15,51.4-31,80.7-31.4c40.3-0.6,71.4,33.7,109.5,46.5
									c50.3,17,107.2-6.1,147.1-39.6c31.4-26.4,59.8-56.9,99.5-66.1c43.5-10.1,87.6,18.4,133.1,20.6c29,1.5,58.1-9.3,81.6-24.3
									c20.4-13,37.8-26.2,50.2-35.1"/>
								<path class="st3" d="M-68.4,156.8c38.9,2.1,89.5-11.9,133.7-38.2c26.2-15.6,53.8-30.8,84.2-30.9c39.8,0,71.2,32.3,109,44.2
									c50.9,16.1,107.7-6.9,149.1-38.6c33.5-25.7,64.7-53.8,105.9-61.7c41.9-8,84.2,18.5,127.9,20.6c29.1,1.5,58-9.3,82.2-23
									c21.2-12,40.2-22.6,51.9-28.1"/>
								<path class="st3" d="M-70.3,142.4c35.6-2.2,83.8-18.4,127-44.4c27.1-16.3,56.1-30.7,87.6-30.3
									c39.3,0.5,70.9,30.8,108.5,41.9c51.6,15.2,108.3-7.6,151.1-37.7c35.6-25,69.6-50.8,112.3-57.2c40.3-6,80.7,18.5,122.7,20.6
									c29.1,1.6,58-9.4,82.7-21.7c22-11,42.6-19.1,53.5-21"/>
								<path class="st3" d="M-72.2,128c32.3-6.5,78.1-25,120.3-50.6c27.9-16.9,58.5-30.6,91.1-29.8c38.9,0.9,70.7,29.4,108,39.6
									c52.2,14.3,108.9-8.3,153.1-36.7C438,26.3,474.8,2.5,519-2.3c38.6-4.2,77.2,18.4,117.4,20.6c29.1,1.6,58-9.4,83.2-20.5
									c22.8-10,45-15.5,55.2-14"/>
								<path class="st3" d="M-74.1,113.6C-45,102.8-1.7,82.1,39.5,56.9c28.8-17.6,60.9-30.5,94.5-29.3
									c38.4,1.4,70.5,27.9,107.5,37.3c52.8,13.4,109.5-9,155.2-35.8c39.9-23.4,79.4-45.2,125.1-48.3C558.7-21.8,595.6-0.8,634,1.4
									c29.1,1.7,58-9.4,83.7-19.2c23.6-9,47.4-11.9,56.8-7"/>
								<path class="st3" d="M-75.9,99.2C-50.1,84.2-9.4,61.1,30.9,36.3c29.6-18.2,63.3-30.5,98-28.8c37.9,1.8,70.3,26.5,107.1,35
									C289.4,55,346.1,33,393.1,7.7c42-22.5,84.2-42.6,131.5-43.9c35.2-1,70.3,18.5,107,20.7c29.2,1.7,58-9.4,84.3-17.9
									c24.4-7.9,49.8-8.4,58.5,0"/>
								<path class="st3" d="M-77.8,84.8C-55.3,65.5-17,40.2,22.4,15.8C52.9-3.1,88.1-14.6,123.8-12.5c37.5,2.3,70,25,106.6,32.7
									c54.1,11.5,110.8-10.2,159.2-33.9c44.2-21.7,89-40.1,137.9-39.4c33.4,0.5,66.8,18.5,101.8,20.7c29.2,1.8,58-9.4,84.8-16.7
									c25.3-6.9,52.2-4.8,60.2,7"/>
								<path class="st3" d="M-79.7,70.5c19.3-23.6,55-51.3,93.5-75.2c31.4-19.6,68.1-30.4,104.8-27.7c37,2.7,69.8,23.5,106.1,30.4
									C279.5,8.4,336.2-12.8,386-35c46.4-20.7,93.9-37.9,144.4-35c31.7,1.8,63.4,18.6,96.5,20.7c29.2,1.8,58-9.4,85.3-15.4
									c26.1-5.8,54.5-1.2,61.8,14.1"/>
								<path class="st3" d="M-81.5,56.1c16-27.9,49.3-57.8,86.8-81.4c32.2-20.2,70.5-30.4,108.3-27.2c36.6,3.1,69.6,22,105.6,28.1
									c55.4,9.5,112.1-11.2,163.3-32c48.6-19.8,98.8-35.9,150.8-30.5c30,3.1,59.9,18.7,91.3,20.7c29.3,2,58-9.3,85.8-14.1
									c26.9-4.7,56.9,2.3,63.5,21.1"/>
								<path class="st3" d="M-83.4,41.7C-70.7,9.5-39.9-22.7-3.3-45.9c33.1-20.9,72.9-30.4,111.7-26.7
									c36.1,3.4,69.4,20.5,105.1,25.9c56.1,8.4,112.8-11.7,165.3-31c50.8-18.8,103.7-34.1,157.2-26.1
									c28.4,4.3,56.4,18.7,86.1,20.7c29.3,2,58-9.2,86.4-12.9c27.7-3.6,59.3,5.9,65.2,28.1"/>
								<path class="st3" d="M-85.3,27.3c9.4-36.5,37.7-71,73.4-93.7C22-88.1,63.4-96.9,103.3-92.6C139-88.8,172.5-73.7,208-69.1
									c56.7,7.4,113.4-12.1,167.3-30.1c53-17.7,108.8-32.6,163.6-21.7c26.9,5.4,52.9,18.7,80.8,20.7c29.3,2.1,58-9.1,86.9-11.6
									c28.6-2.5,61.7,9.5,66.8,35.1"/>
								<path class="st3" d="M-87.2,12.9c6.2-40.8,32-77.6,66.7-99.9c34.7-22.3,77.7-30.5,118.6-25.7c35.2,4.1,68.9,17.4,104.2,21.3
									c57.4,6.3,114.1-12.5,169.3-29.1c55.2-16.6,114.1-31.4,170-17.2c25.4,6.4,49.5,18.8,75.6,20.7c29.3,2.2,58-9,87.4-10.3
									c29.4-1.3,64.1,13,68.5,42.1"/>
							</g>
							<g>
								<path class="st3" d="M523.5,172.4c11-22.6-14.7-43.7-17.2-66.2c-4.7-42.4,25.7-47,26.9-79.1c1.5-41.1-30.1-49.3-41.3-82.4
									c-14.1-38.4,7.5-93.3-30.9-119.3"/>
								<path class="st3" d="M547.2,170.2c8.3-22.1-15.1-43-18.1-65.1c-2.2-16.1,0.5-27.1,4.7-36.4c6.1-13.6,15.3-23.5,15.6-41.9
									c0.3-19.6-6.5-32.2-14.6-44c-8.1-11.6-17.3-22.5-22.5-38.6c-12.3-38.4,5.5-90.8-27.9-118.6"/>
								<path class="st3" d="M571,167.9c5.5-21.7-15.4-42.3-19-64.1c-2.6-15.2-0.9-26.2,2.1-35.8c4.3-13.6,11.6-24.1,11.4-41.8
									c-0.2-18.7-6.2-31.6-13.2-43.8c-7-12-15-23.3-19.5-39c-11-38.3,3.4-88.3-24.9-117.8"/>
								<path class="st3" d="M594.7,165.7c2.8-21.2-15.6-41.6-19.9-63c-2.9-14.3-2.3-25.3-0.4-35.2c2.6-13.6,7.9-24.8,7.2-41.7
									c-0.7-17.8-5.9-31-11.9-43.5c-5.9-12.3-12.7-24.1-16.6-39.4c-9.7-38.2,1.3-85.8-21.9-117"/>
								<path class="st3" d="M618.4,163.5c0-20.8-15.9-40.9-20.8-61.9c-3.2-13.4-3.6-24.4-2.9-34.6c0.9-13.6,4.2-25.4,3.1-41.6
									c-1.2-16.9-5.6-30.3-10.6-43.3c-4.9-12.7-10.4-24.9-13.7-39.8c-8.3-38.1-0.8-83.4-18.9-116.2"/>
								<path class="st3" d="M642.1,161.2c-2.7-20.3-16.1-40.2-21.7-60.9c-3.4-12.6-5-23.5-5.5-34c-0.7-13.6,0.6-26.1-1.1-41.5
									c-1.7-16-5.3-29.7-9.3-43.1c-3.9-13-8.1-25.7-10.8-40.2c-6.9-38-2.9-80.9-15.9-115.5"/>
								<path class="st3" d="M665.8,159c-5.4-19.9-16.3-39.5-22.6-59.8c-3.7-11.7-6.2-22.6-8-33.4c-2.3-13.5-3.1-26.7-5.2-41.3
									c-2.1-15.1-5-29-7.9-42.8c-2.9-13.3-5.8-26.5-7.8-40.6c-5.5-38-4.9-78.4-12.9-114.7"/>
								<path class="st3" d="M800.6,95c9.4-19.2-12.5-37.2-14.6-56.4c-4-36.1,21.9-40,22.9-67.4c1.3-35-25.6-42-35.2-70.1
									c-12-32.7,6.4-79.4-26.3-101.6"/>
								<path class="st3" d="M784.7,103.8c6.9-19.3-13.2-37.5-15.9-56.7c-2-14,0.2-23.6,3.7-31.7c5.1-11.9,12.9-20.6,13.1-36.6
									c0.2-17-5.6-28.1-12.5-38.3c-6.9-10.2-14.8-19.7-19.2-33.7c-10.6-33.5,4.5-78.9-23.9-103.4"/>
								<path class="st3" d="M768.8,112.7c4.3-19.3-13.8-37.7-17.2-57c-2.4-13.4-1.1-23.3,1.4-31.9c3.5-12.2,9.6-21.7,9.3-37.4
									c-0.3-16.5-5.4-28.1-11.5-39.1c-6-10.8-13-21-16.9-35c-9.6-34.2,2.6-78.4-21.6-105.1"/>
								<path class="st3" d="M753,121.5c1.8-19.3-14.4-37.9-18.4-57.4c-2.7-12.9-2.5-22.9-1-32.1c1.9-12.4,6.3-22.8,5.6-38.1
									c-0.8-16.1-5.3-28.2-10.6-39.8c-5.2-11.4-11.1-22.3-14.5-36.2c-8.5-34.9,0.7-77.9-19.3-106.9"/>
								<path class="st3" d="M737.1,130.3c-0.7-19.3-14.9-38.1-19.7-57.7c-3-12.4-3.8-22.6-3.4-32.2c0.5-12.7,3-24,1.8-38.9
									c-1.2-15.6-5.1-28.2-9.6-40.5c-4.3-11.9-9.2-23.5-12.1-37.4c-7.5-35.7-1.3-77.4-16.9-108.6"/>
								<path class="st3" d="M721.3,139.1c-3.2-19.4-15.4-38.4-21-58c-3.3-11.8-5-22.3-5.8-32.4c-1-13-0.3-25.1-1.9-39.7
									c-1.7-15.1-5-28.3-8.6-41.2c-3.5-12.5-7.3-24.8-9.7-38.6c-6.3-36.4-3.2-76.9-14.6-110.4"/>
								<path class="st3" d="M705.4,147.9c-5.7-19.4-15.9-38.6-22.2-58.4c-3.6-11.3-6.2-22-8.2-32.6c-2.4-13.3-3.5-26.2-5.7-40.4
									c-2.1-14.6-4.9-28.3-7.6-41.9c-2.7-13.1-5.3-26.1-7.3-39.8c-5.2-37.1-5.1-76.4-12.3-112.1"/>
								<path class="st3" d="M689.5,156.8c-12.6-30-25.3-60.1-34.1-91.5c-7.7-27.4-12.3-55.6-16-83.8c-6.8-51.4-10.8-103.2-14.9-155
									"/>
								<path class="st3" d="M340.2,253.4c-15.8-37.6-31.7-75.4-42.7-114.7c-9.6-34.4-15.4-69.7-20.1-105.1
									c-8.6-64.5-13.6-129.4-18.6-194.2"/>
								<path class="st3" d="M360.6,244.4c-7.9-24.2-20-48.2-28.1-72.8c-4.6-13.9-8.2-27.3-11-40.6c-3.5-16.6-5.5-33-8.3-50.6
									c-2.8-18-6-35.3-9.1-52.4c-3-16.5-6-32.9-8.3-50c-6.1-46.5-7-94.9-14.5-140.2"/>
								<path class="st3" d="M381,235.4c-5.5-24-19.4-47.6-26.7-72c-4.3-14.3-7-27.4-8.7-40.2c-2.1-16.2-2.4-31.7-4.8-49.5
									c-2.4-18.4-6.1-35-10-51.4C327,6.5,323-9.1,320.4-26.2c-7.1-45.5-5.2-94.7-16.6-137.6"/>
								<path class="st3" d="M401.3,226.4c-3.2-23.8-18.8-47-25.4-71.1c-4-14.7-5.8-27.5-6.4-39.7c-0.8-15.8,0.6-30.5-1.3-48.5
									c-1.9-18.7-6.2-34.7-10.8-50.4c-4.5-15.2-9.5-30.1-12.6-47c-8.1-44.5-3.3-94.5-18.6-135"/>
								<path class="st3" d="M421.7,217.4c-0.8-23.6-18.2-46.5-24-70.3c-3.7-15.1-4.6-27.6-4.2-39.3c0.6-15.5,3.7-29.2,2.2-47.4
									c-1.5-19-6.3-34.4-11.7-49.3c-5.3-14.6-11.2-28.7-14.7-45.6c-9.1-43.5-1.5-94.3-20.6-132.4"/>
								<path class="st3" d="M442.1,208.4c1.5-23.4-17.5-45.9-22.6-69.5c-3.4-15.5-3.3-27.7-1.9-38.8c1.9-15.1,6.8-27.9,5.7-46.3
									c-1-19.3-6.4-34.1-12.5-48.3c-6-13.9-12.9-27.3-16.8-44.1c-10.1-42.4,0.3-94.1-22.7-129.8"/>
								<path class="st3" d="M462.4,199.4c3.9-23.2-16.9-45.4-21.3-68.7c-3-15.9-2-27.8,0.4-38.4c3.4-14.7,9.8-26.7,9.2-45.3
									c-0.6-19.6-6.5-33.8-13.4-47.3c-6.8-13.3-14.6-25.9-19-42.6c-10.9-41.5,2.1-93.9-24.7-127.2"/>
								<path class="st3" d="M482.8,190.4c6.3-23-16.2-44.8-19.9-67.8c-2.6-16.3-0.7-27.9,2.6-37.9c4.8-14.4,12.9-25.4,12.7-44.2
									c-0.1-19.9-6.6-33.5-14.2-46.3c-7.6-12.6-16.3-24.5-21.1-41.1c-11.8-40.5,3.9-93.7-26.8-124.6"/>
								<path class="st3" d="M503.2,181.4c8.6-22.8-15.5-44.3-18.6-67c-2.3-16.7,0.6-27.9,4.9-37.5c6.3-14,16-24.1,16.2-43.1
									c0.3-20.2-6.7-33.2-15-45.2c-8.3-12-17.9-23.1-23.3-39.7c-12.7-39.5,5.7-93.5-28.8-121.9"/>
								<path class="st3" d="M137.1,236.3C167.5,44.8,19.2,147.9,61-57c-0.7-28.9-10.3-55.9-27.5-79.1"/>
								<path class="st3" d="M166.1,238.7c6.2-58.5-3.5-90.7-18.3-113.9c-18.7-29.2-47.6-41.6-58.3-81.9
									C83.3,19.1,87-12.1,90.3-59.2c2-29-9.5-56.3-24.6-80.5"/>
								<path class="st3" d="M195.2,241.1c2.5-55-7.9-88.3-22.3-114c-16.9-30.2-42.4-46.2-51.9-85.7c-6.2-25.7-3.5-57.7-1.3-102.7
									c1.4-29.1-8.7-56.7-21.7-81.8"/>
								<path class="st3" d="M224.2,243.6c-1.2-51.6-12.5-85.8-26.4-114.2c-15.2-31.1-37.1-50.9-45.6-89.6
									c-6-27.6-4.4-60.4-3.4-103.4c0.7-29.2-8-57.2-18.8-83.1"/>
								<path class="st3" d="M253.2,246c-4.8-48.1-17.1-83.2-30.5-114.3c-13.7-32-31.8-55.6-39.2-93.5c-5.8-29.5-5.3-63-5.4-104
									c0-29.3-7.2-57.6-15.9-84.4"/>
								<path class="st3" d="M282.2,248.5c-8.5-44.6-21.9-80.6-34.5-114.4c-12.3-32.8-26.4-60.3-32.8-97.3
									c-5.5-31.4-6.3-65.6-7.4-104.6c-0.8-29.3-6.4-58-13-85.7"/>
								<path class="st3" d="M311.2,250.9c-12.2-41.1-26.8-78-38.6-114.5c-10.9-33.6-20.9-65-26.4-101.2
									c-5.1-33.3-7.3-68.1-9.4-105.3c-1.7-29.4-5.7-58.4-10.1-87"/>
								<path class="st3" d="M-34.9,259.8C-77.4,159.2-92.3,47.1-77.7-61.1"/>
								<path class="st3" d="M-10.3,256.4C-34.8,160.8-67,101.3-62.4-2.2c1-23.6,0.5-47,0.6-69.7"/>
								<path class="st3" d="M14.3,253.1C-1.1,141.5-48.9,109.5-41.9-11.3c1.4-24.5-1.3-48.5-4.1-71.3"/>
								<path class="st3" d="M38.8,249.7c-6.2-127.5-69.6-132-60.1-270.1c1.7-25.4-3.1-50-8.7-72.8"/>
								<path class="st3" d="M63.4,246.3c3-143.5-76-120.3-64.1-275.9C1.3-55.8-5.6-81-14.1-104"/>
								<path class="st3" d="M88,243C100.1,83.5,5.7,134.4,19.8-38.7c2.2-27.1-6.7-52.9-18.1-76"/>
								<path class="st3" d="M112.6,239.6C133.8,64.2,24,142.9,40.4-47.8c2.4-28-8.5-54.4-22.8-77.6"/>
							</g>
						</g>
						
							<path style="clip-path:url(#SVGID_00000108292703559200545380000004068948482176763305_);fill:none;stroke:#B3B3B3;stroke-width:0.3;stroke-miterlimit:10;" d="
							M776.1,35.7C761.5,54.9,749,76,730.9,91.8c-21.8,19.1-51.1,29.4-80.1,28.1c-50.8-2.3-101.1-38.1-148.8-20.6
							c-35.8,13.1-54.8,51.1-80.2,79.5c-34.9,38.9-92.5,61.9-141,42.4c-38.7-15.5-69.3-55.7-110.9-53.3
							c-26.1,1.5-47.7,19.8-70.4,32.9C51.5,228.5-9,233.6-61,214.3"/>
						
							<path style="clip-path:url(#SVGID_00000108292703559200545380000004068948482176763305_);fill:none;stroke:#B3B3B3;stroke-width:0.3;stroke-miterlimit:10;" d="
							M-87.2,12.9c6.2-40.8,32-77.6,66.7-99.9c34.7-22.3,77.7-30.5,118.6-25.7c35.2,4.1,68.9,17.4,104.2,21.3
							c57.4,6.3,114.1-12.5,169.3-29.1c55.2-16.6,114.1-31.4,170-17.2c25.4,6.4,49.5,18.8,75.6,20.7c29.3,2.2,58-9,87.4-10.3
							c29.4-1.3,64.1,13,68.5,42.1"/>
					</g>
					<g>
						<defs>
							<path id="SVGID_00000148638906723866866160000012192891184284150665_" d="M773.2-85.3c-4.4-29.1-39.1-43.5-68.5-42.1
								c-29.4,1.3-58.1,12.5-87.4,10.3c-26.1-1.9-50.2-14.2-75.6-20.7c-55.9-14.2-114.8,0.6-170,17.2
								c-55.2,16.6-112,35.4-169.3,29.1c-35.3-3.9-68.9-17.1-104.2-21.3c-41-4.8-83.9,3.4-118.6,25.7C-55.2-64.7-81-27.9-87.2,12.9
								L-61,214.3c52,19.3,112.4,14.1,160.4-13.6c22.7-13.1,44.2-31.5,70.4-32.9c41.6-2.4,72.2,37.8,110.9,53.3
								c48.5,19.5,106.1-3.5,141-42.4c25.5-28.4,44.4-66.4,80.2-79.5c47.8-17.4,98.1,18.3,148.8,20.6c29,1.3,58.3-9,80.1-28.1
								C749,76,761.5,54.9,776.1,35.7L773.2-85.3z"/>
						</defs>
						<clipPath id="SVGID_00000031912489458798463690000012080115350145824657_">
							<use xlink:href="#SVGID_00000148638906723866866160000012192891184284150665_"  style="overflow:visible;"/>
						</clipPath>
					</g>
				</g>
			</g>
		</g>
		<g style="opacity:0.5;clip-path:url(#SVGID_00000005250231299498318560000011644673267287699102_);">
			<path class="st3" d="M-19.7,301.7c17.7,0.2,36.8-4.7,56.5-15.2c51.9-33.2,84.1-67,135.1-49.9c77.8,30.6,108,51.5,179.5,32.4
				c35.1-9.5,63.9-29.8,88.9-57.1C559.7,66.7,619,214,751.5,134.3"/>
			<path class="st3" d="M753.5,145.8c-19.5,12.2-37.9,19.8-55.9,22.5c-102.1,15-159.5-60.6-258.8,57.5c-7.3,8.6-15.2,16.5-23.3,24
				c-18.8,17.4-40.1,28.9-64.3,34.8c-53.6,13.1-87.1,1.1-133.2-13.6c-14.6-4.7-30.1-10-47.8-14.6c-50.5-13.2-81.2,25.2-129.3,59.4
				c-18.5,13.1-36.5,20.1-53,21.9"/>
			<path class="st3" d="M753.7,158.3c-19.4,12.4-37.9,20.5-57,22c-106.4,8.6-166.3-55.4-259.4,59.3c-7,8.7-14.6,17-22.3,25
				c-18.4,19.1-39.9,30.3-63.9,35.5c-52.2,11.5-88.8-3.3-134.2-14.1c-15.3-3.6-31.1-7.3-48.4-10C118,268.1,87.9,307.5,44.9,345
				C23.8,363.3,3.5,373-13.5,375.9"/>
			<path class="st3" d="M-12.2,420.1"/>
			<path class="st3" d="M753.5,171.2c-19,12.4-37.6,20.8-57.7,21.3c-110.7,2.4-173-50.2-260,61.1c-6.8,8.7-14,17.4-21.4,26
				c-18,20.9-39.6,31.7-63.5,36.3c-50.7,9.7-90.5-7.5-135.3-14.5c-16-2.5-32.1-4.6-48.9-5.4c-50.4-2.5-80,37.5-117.7,78.4
				C25.1,400,3,414.2-12.2,420.1"/>
			<path class="st3" d="M752.7,184.4c-18.5,12.2-37,20.8-57.9,20.1c-114.9-3.7-179.6-44.8-260.5,62.8c-6.6,8.8-13.4,17.8-20.5,26.9
				c-17.6,22.6-39.3,33.1-63.1,37c-49.3,8.1-92.2-11.5-136.3-15c-16.7-1.3-33.1-1.8-49.5-0.9C114.6,318.6,85.3,359,53,403.4
				c-30.8,42.4-56,66-59.9,79.6"/>
			<path class="st3" d="M752.8,197.1c-18.3,12.4-37.1,21.3-58.9,19.5c-119.2-9.6-186.2-39.3-261.1,64.6
				c-6.4,8.9-12.7,18.3-19.5,27.9c-17.2,24.4-39,34.5-62.7,37.7c-47.9,6.5-93.9-15.3-137.3-15.4c-17.5,0-34.1,1-50,3.7
				C113,344,83.6,384.6,57.1,432.6c-16.6,30-29.7,56-36,79.2"/>
			<path class="st3" d="M752.7,209.9c-18.1,12.4-36.9,21.6-59.7,18.8c-123.6-15.6-192.8-33.9-261.7,66.4
				c-6.2,8.9-12.1,18.7-18.6,28.9c-16.7,26.2-38.8,36-62.3,38.5c-46.4,5-95.5-19-138.3-15.9c-18.1,1.3-35,3.8-50.6,8.3
				c-50,14.6-79.9,55.2-100.3,106.9c-8.1,20.5-14.3,41.3-18,62.2"/>
			<path class="st3" d="M753.9,221.8c-18.2,12.9-37.6,22.9-61.8,19c-139.8-24.2-211.8-29.1-280,98c-49.7,80-137.2,11.8-201.3,22.9
				C117.2,373,68.7,436,58.3,529.6"/>
		</g>
	</g>
</g>
<g id="OBJECTS">
	<g>
		<defs>
			<rect id="SVGID_00000069367170913557921380000007426578242570833575_" width="750" height="500"/>
		</defs>
		<clipPath id="SVGID_00000137842011815634974370000005013881678560975782_">
			<use xlink:href="#SVGID_00000069367170913557921380000007426578242570833575_"  style="overflow:visible;"/>
		</clipPath>
	</g>
</g>
</svg>
